<svg width="66" height="32" viewBox="0 0 66 32" fill="none" xmlns="http://www.w3.org/2000/svg">
<path d="M0 0H62C64.2091 0 66 1.79086 66 4V32H4C1.79086 32 0 30.2091 0 28V0Z" fill="#F1F5F9"/>
<g clip-path="url(#clip0_7_1740)">
<path d="M15.5 20H10.5V13.5C10.5 13.225 10.275 13 10 13C9.725 13 9.5 13.225 9.5 13.5V20C9.5 20.55 9.95 21 10.5 21H15.5C15.775 21 16 20.775 16 20.5C16 20.225 15.775 20 15.5 20ZM18 18V12C18 11.45 17.55 11 17 11H12.5C11.95 11 11.5 11.45 11.5 12V18C11.5 18.55 11.95 19 12.5 19H17C17.55 19 18 18.55 18 18ZM17 18H12.5V12H17V18Z" fill="#64748B"/>
</g>
<path d="M31.049 15.2734H29.4936C29.4652 15.0722 29.4072 14.8935 29.3196 14.7372C29.232 14.5786 29.1196 14.4437 28.9822 14.3324C28.8449 14.2211 28.6863 14.1359 28.5064 14.0767C28.3288 14.0175 28.1359 13.9879 27.9276 13.9879C27.5511 13.9879 27.2232 14.0814 26.9439 14.2685C26.6645 14.4531 26.4479 14.723 26.294 15.0781C26.1402 15.4309 26.0632 15.8594 26.0632 16.3636C26.0632 16.8821 26.1402 17.3177 26.294 17.6705C26.4503 18.0232 26.6681 18.2895 26.9474 18.4695C27.2268 18.6494 27.55 18.7393 27.9169 18.7393C28.1229 18.7393 28.3134 18.7121 28.4886 18.6577C28.6662 18.6032 28.8236 18.5239 28.9609 18.4197C29.0982 18.3132 29.2119 18.1842 29.3018 18.0327C29.3942 17.8812 29.4581 17.7083 29.4936 17.5142L31.049 17.5213C31.0088 17.8551 30.9081 18.1771 30.7472 18.4872C30.5885 18.795 30.3743 19.0708 30.1044 19.3146C29.8369 19.5561 29.5173 19.7479 29.1456 19.8899C28.7763 20.0296 28.3584 20.0994 27.892 20.0994C27.2434 20.0994 26.6634 19.9527 26.152 19.6591C25.643 19.3655 25.2405 18.9406 24.9446 18.3842C24.651 17.8279 24.5043 17.1544 24.5043 16.3636C24.5043 15.5705 24.6534 14.8958 24.9517 14.3395C25.25 13.7831 25.6548 13.3594 26.1662 13.0682C26.6776 12.7746 27.2528 12.6278 27.892 12.6278C28.3134 12.6278 28.7041 12.687 29.0639 12.8054C29.4261 12.9238 29.7469 13.0966 30.0263 13.3239C30.3056 13.5488 30.5329 13.8246 30.7081 14.1513C30.8857 14.478 30.9993 14.852 31.049 15.2734ZM38.8349 16.3636C38.8349 17.1567 38.6845 17.8314 38.3839 18.3878C38.0856 18.9441 37.6784 19.3691 37.1623 19.6626C36.6486 19.9538 36.0709 20.0994 35.4293 20.0994C34.783 20.0994 34.203 19.9527 33.6893 19.6591C33.1755 19.3655 32.7695 18.9406 32.4712 18.3842C32.1729 17.8279 32.0238 17.1544 32.0238 16.3636C32.0238 15.5705 32.1729 14.8958 32.4712 14.3395C32.7695 13.7831 33.1755 13.3594 33.6893 13.0682C34.203 12.7746 34.783 12.6278 35.4293 12.6278C36.0709 12.6278 36.6486 12.7746 37.1623 13.0682C37.6784 13.3594 38.0856 13.7831 38.3839 14.3395C38.6845 14.8958 38.8349 15.5705 38.8349 16.3636ZM37.2759 16.3636C37.2759 15.8499 37.199 15.4167 37.0451 15.0639C36.8936 14.7112 36.6793 14.4437 36.4023 14.2614C36.1254 14.0791 35.801 13.9879 35.4293 13.9879C35.0576 13.9879 34.7333 14.0791 34.4563 14.2614C34.1793 14.4437 33.9639 14.7112 33.81 15.0639C33.6585 15.4167 33.5827 15.8499 33.5827 16.3636C33.5827 16.8774 33.6585 17.3106 33.81 17.6634C33.9639 18.0161 34.1793 18.2836 34.4563 18.4659C34.7333 18.6482 35.0576 18.7393 35.4293 18.7393C35.801 18.7393 36.1254 18.6482 36.4023 18.4659C36.6793 18.2836 36.8936 18.0161 37.0451 17.6634C37.199 17.3106 37.2759 16.8774 37.2759 16.3636ZM39.9739 20V12.7273H42.8432C43.3948 12.7273 43.8648 12.8326 44.253 13.0433C44.6413 13.2517 44.9372 13.5417 45.1408 13.9134C45.3468 14.2827 45.4498 14.7088 45.4498 15.1918C45.4498 15.6747 45.3456 16.1009 45.1373 16.4702C44.9289 16.8395 44.6271 17.1271 44.2317 17.3331C43.8387 17.5391 43.3629 17.642 42.8042 17.642H40.9753V16.4098H42.5556C42.8515 16.4098 43.0953 16.3589 43.2871 16.2571C43.4812 16.1529 43.6257 16.0097 43.7203 15.8274C43.8174 15.6428 43.8659 15.4309 43.8659 15.1918C43.8659 14.9503 43.8174 14.7396 43.7203 14.5597C43.6257 14.3774 43.4812 14.2365 43.2871 14.1371C43.093 14.0353 42.8468 13.9844 42.5485 13.9844H41.5115V20H39.9739ZM46.0224 12.7273H47.7447L49.4031 15.8594H49.4741L51.1325 12.7273H52.8548L50.2021 17.429V20H48.6751V17.429L46.0224 12.7273Z" fill="#64748B"/>
<defs>
<clipPath id="clip0_7_1740">
<rect width="12" height="12" fill="white" transform="translate(8 10)"/>
</clipPath>
</defs>
</svg>
