<svg width="77" height="36" viewBox="0 0 77 36" fill="none" xmlns="http://www.w3.org/2000/svg">
<g clip-path="url(#clip0_7_1809)">
<path d="M9.99996 9.87289C5.39579 9.87289 1.66663 13.6041 1.66663 18.2062C1.66663 21.8889 4.05413 25.0118 7.36454 26.1125C7.78121 26.191 7.93399 25.9333 7.93399 25.7118C7.93399 25.5139 7.92704 24.9896 7.92357 24.2951C5.60551 24.7979 5.11663 23.1771 5.11663 23.1771C4.73746 22.2153 4.18954 21.9583 4.18954 21.9583C3.43468 21.4416 4.24788 21.4521 4.24788 21.4521C5.08468 21.5104 5.52426 22.3104 5.52426 22.3104C6.26732 23.5847 7.47496 23.2166 7.95135 23.0034C8.02635 22.4646 8.24093 22.0972 8.47913 21.8889C6.62843 21.6805 4.68329 20.9639 4.68329 17.7708C4.68329 16.8611 5.00621 16.118 5.54093 15.5347C5.44718 15.3243 5.16593 14.4771 5.61385 13.3291C5.61385 13.3291 6.31176 13.1055 7.90551 14.1833C8.57218 13.9979 9.28051 13.9062 9.98885 13.9021C10.6972 13.9062 11.4055 13.9979 12.0722 14.1833C13.6555 13.1055 14.3534 13.3291 14.3534 13.3291C14.8013 14.4771 14.5201 15.3243 14.4368 15.5347C14.968 16.118 15.2909 16.8611 15.2909 17.7708C15.2909 20.9722 13.343 21.6771 11.4888 21.8819C11.7805 22.1319 12.0513 22.643 12.0513 23.4236C12.0513 24.5389 12.0409 25.4347 12.0409 25.7055C12.0409 25.9243 12.1868 26.1847 12.6138 26.1014C15.9479 25.0083 18.3333 21.8833 18.3333 18.2062C18.3333 13.6041 14.602 9.87289 9.99996 9.87289Z" fill="#64748B"/>
</g>
<path d="M28.4416 13.2727V22H27.1206V14.5938H27.0694L24.9814 15.9574V14.696L27.1589 13.2727H28.4416ZM30.8024 22V21.0455L33.7555 17.9858C34.0708 17.6534 34.3308 17.3622 34.5353 17.1122C34.7427 16.8594 34.8975 16.6193 34.9998 16.392C35.1021 16.1648 35.1532 15.9233 35.1532 15.6676C35.1532 15.3778 35.085 15.1278 34.9487 14.9176C34.8123 14.7045 34.6262 14.5412 34.3904 14.4276C34.1547 14.3111 33.889 14.2528 33.5936 14.2528C33.2811 14.2528 33.0083 14.3168 32.7754 14.4446C32.5424 14.5724 32.3635 14.7528 32.2385 14.9858C32.1135 15.2187 32.051 15.4915 32.051 15.804H30.7939C30.7939 15.2727 30.916 14.8082 31.1603 14.4105C31.4047 14.0128 31.7399 13.7045 32.166 13.4858C32.5922 13.2642 33.0765 13.1534 33.6191 13.1534C34.1674 13.1534 34.6504 13.2628 35.068 13.4815C35.4885 13.6974 35.8166 13.9929 36.0524 14.3679C36.2882 14.7401 36.4061 15.1605 36.4061 15.6293C36.4061 15.9531 36.345 16.2699 36.2228 16.5795C36.1035 16.8892 35.8947 17.2344 35.5964 17.6151C35.2981 17.9929 34.8833 18.4517 34.3521 18.9915L32.6177 20.8068V20.8707H36.5467V22H30.8024ZM41.0424 22.1193C40.5083 22.1193 40.0282 22.017 39.6021 21.8125C39.1788 21.6051 38.8407 21.321 38.5879 20.9602C38.335 20.5994 38.2001 20.1875 38.1831 19.7244H39.4615C39.4927 20.0994 39.6589 20.4077 39.96 20.6491C40.2612 20.8906 40.622 21.0114 41.0424 21.0114C41.3777 21.0114 41.6745 20.9347 41.9331 20.7812C42.1944 20.625 42.399 20.4105 42.5467 20.1378C42.6973 19.8651 42.7725 19.554 42.7725 19.2045C42.7725 18.8494 42.6958 18.5327 42.5424 18.2543C42.389 17.9759 42.1774 17.7571 41.9075 17.598C41.6404 17.4389 41.3336 17.358 40.987 17.3551C40.7228 17.3551 40.4572 17.4006 40.1902 17.4915C39.9231 17.5824 39.7072 17.7017 39.5424 17.8494L38.3365 17.6705L38.8265 13.2727H43.6248V14.402H39.9217L39.6447 16.8438H39.6958C39.8663 16.679 40.0922 16.5412 40.3734 16.4304C40.6575 16.3196 40.9615 16.2642 41.2853 16.2642C41.8166 16.2642 42.2896 16.3906 42.7044 16.6435C43.122 16.8963 43.4501 17.2415 43.6887 17.679C43.9302 18.1136 44.0495 18.6136 44.0467 19.179C44.0495 19.7443 43.9217 20.2486 43.6632 20.6918C43.4075 21.1349 43.0524 21.4844 42.5978 21.7401C42.1461 21.9929 41.6277 22.1193 41.0424 22.1193ZM53.7008 17.0526L52.546 17.2571C52.4977 17.1094 52.421 16.9687 52.3159 16.8352C52.2136 16.7017 52.0744 16.5923 51.8983 16.5071C51.7221 16.4219 51.502 16.3793 51.2377 16.3793C50.877 16.3793 50.5758 16.4602 50.3343 16.6222C50.0929 16.7812 49.9721 16.9872 49.9721 17.2401C49.9721 17.4588 50.0531 17.6349 50.215 17.7685C50.377 17.902 50.6383 18.0114 50.9991 18.0966L52.0389 18.3352C52.6412 18.4744 53.09 18.6889 53.3855 18.9787C53.6809 19.2685 53.8287 19.6449 53.8287 20.108C53.8287 20.5 53.715 20.8494 53.4877 21.1562C53.2633 21.4602 52.9494 21.6989 52.546 21.8722C52.1454 22.0455 51.6809 22.1321 51.1525 22.1321C50.4196 22.1321 49.8216 21.9759 49.3585 21.6634C48.8954 21.348 48.6113 20.9006 48.5062 20.321L49.7377 20.1335C49.8145 20.4545 49.9721 20.6974 50.2108 20.8622C50.4494 21.0241 50.7605 21.1051 51.144 21.1051C51.5616 21.1051 51.8954 21.0185 52.1454 20.8452C52.3954 20.669 52.5204 20.4545 52.5204 20.2017C52.5204 19.9972 52.4437 19.8253 52.2903 19.6861C52.1397 19.5469 51.9082 19.4418 51.5957 19.3707L50.4877 19.1278C49.877 18.9886 49.4252 18.767 49.1326 18.4631C48.8429 18.1591 48.698 17.7741 48.698 17.3082C48.698 16.9219 48.8059 16.5838 49.0218 16.294C49.2377 16.0043 49.536 15.7784 49.9167 15.6165C50.2974 15.4517 50.7335 15.3693 51.225 15.3693C51.9324 15.3693 52.4892 15.5227 52.8954 15.8295C53.3017 16.1335 53.5701 16.5412 53.7008 17.0526ZM58.285 15.4545V16.4773H54.7097V15.4545H58.285ZM55.6685 13.8864H56.9426V20.0781C56.9426 20.3253 56.9796 20.5114 57.0534 20.6364C57.1273 20.7585 57.2225 20.8423 57.339 20.8878C57.4583 20.9304 57.5875 20.9517 57.7267 20.9517C57.829 20.9517 57.9185 20.9446 57.9952 20.9304C58.0719 20.9162 58.1316 20.9048 58.1742 20.8963L58.4043 21.9489C58.3304 21.9773 58.2253 22.0057 58.089 22.0341C57.9526 22.0653 57.7821 22.0824 57.5776 22.0852C57.2424 22.0909 56.9299 22.0312 56.6401 21.9062C56.3503 21.7812 56.1159 21.5881 55.937 21.3267C55.758 21.0653 55.6685 20.7372 55.6685 20.3423V13.8864ZM61.5993 22.1449C61.1845 22.1449 60.8095 22.0682 60.4743 21.9148C60.139 21.7585 59.8734 21.5327 59.6774 21.2372C59.4842 20.9418 59.3876 20.5795 59.3876 20.1506C59.3876 19.7812 59.4586 19.4773 59.6007 19.2386C59.7427 19 59.9345 18.8111 60.176 18.6719C60.4174 18.5327 60.6873 18.4276 60.9856 18.3565C61.2839 18.2855 61.5879 18.2315 61.8975 18.1946C62.2896 18.1491 62.6078 18.1122 62.8521 18.0838C63.0964 18.0526 63.274 18.0028 63.3848 17.9347C63.4956 17.8665 63.551 17.7557 63.551 17.6023V17.5724C63.551 17.2003 63.4458 16.9119 63.2356 16.7074C63.0282 16.5028 62.7186 16.4006 62.3066 16.4006C61.8777 16.4006 61.5396 16.4957 61.2924 16.6861C61.0481 16.8736 60.8791 17.0824 60.7853 17.3125L59.5879 17.0398C59.7299 16.642 59.9373 16.321 60.21 16.0767C60.4856 15.8295 60.8024 15.6506 61.1603 15.5398C61.5183 15.4261 61.8947 15.3693 62.2896 15.3693C62.551 15.3693 62.8279 15.4006 63.1206 15.4631C63.416 15.5227 63.6916 15.6335 63.9473 15.7955C64.2058 15.9574 64.4174 16.1889 64.5822 16.4901C64.747 16.7884 64.8294 17.1761 64.8294 17.6534V22H63.585V21.1051H63.5339C63.4515 21.2699 63.3279 21.4318 63.1632 21.5909C62.9984 21.75 62.7868 21.8821 62.5282 21.9872C62.2697 22.0923 61.96 22.1449 61.5993 22.1449ZM61.8762 21.1222C62.2285 21.1222 62.5297 21.0526 62.7797 20.9134C63.0325 20.7741 63.2243 20.5923 63.3549 20.3679C63.4885 20.1406 63.5552 19.8977 63.5552 19.6392V18.7955C63.5098 18.8409 63.4217 18.8835 63.291 18.9233C63.1632 18.9602 63.0169 18.9929 62.8521 19.0213C62.6873 19.0469 62.5268 19.071 62.3706 19.0938C62.2143 19.1136 62.0836 19.1307 61.9785 19.1449C61.7314 19.1761 61.5055 19.2287 61.301 19.3026C61.0993 19.3764 60.9373 19.483 60.8152 19.6222C60.6958 19.7585 60.6362 19.9403 60.6362 20.1676C60.6362 20.483 60.7527 20.7216 60.9856 20.8835C61.2186 21.0426 61.5154 21.1222 61.8762 21.1222ZM66.5265 22V15.4545H67.758V16.4943H67.8262C67.9455 16.142 68.1557 15.8651 68.4569 15.6634C68.7608 15.4588 69.1046 15.3565 69.4881 15.3565C69.5676 15.3565 69.6614 15.3594 69.7694 15.3651C69.8801 15.3707 69.9668 15.3778 70.0293 15.3864V16.6051C69.9782 16.5909 69.8873 16.5753 69.7566 16.5582C69.6259 16.5384 69.4952 16.5284 69.3645 16.5284C69.0634 16.5284 68.7949 16.5923 68.5591 16.7202C68.3262 16.8452 68.1415 17.0199 68.0051 17.2443C67.8688 17.4659 67.8006 17.7187 67.8006 18.0028V22H66.5265ZM76.0368 17.0526L74.8819 17.2571C74.8336 17.1094 74.7569 16.9687 74.6518 16.8352C74.5495 16.7017 74.4103 16.5923 74.2342 16.5071C74.0581 16.4219 73.8379 16.3793 73.5737 16.3793C73.2129 16.3793 72.9118 16.4602 72.6703 16.6222C72.4288 16.7812 72.3081 16.9872 72.3081 17.2401C72.3081 17.4588 72.389 17.6349 72.551 17.7685C72.7129 17.902 72.9743 18.0114 73.335 18.0966L74.3748 18.3352C74.9771 18.4744 75.426 18.6889 75.7214 18.9787C76.0169 19.2685 76.1646 19.6449 76.1646 20.108C76.1646 20.5 76.051 20.8494 75.8237 21.1562C75.5993 21.4602 75.2853 21.6989 74.8819 21.8722C74.4814 22.0455 74.0169 22.1321 73.4885 22.1321C72.7555 22.1321 72.1575 21.9759 71.6944 21.6634C71.2314 21.348 70.9473 20.9006 70.8422 20.321L72.0737 20.1335C72.1504 20.4545 72.3081 20.6974 72.5467 20.8622C72.7853 21.0241 73.0964 21.1051 73.4799 21.1051C73.8975 21.1051 74.2314 21.0185 74.4814 20.8452C74.7314 20.669 74.8564 20.4545 74.8564 20.2017C74.8564 19.9972 74.7797 19.8253 74.6262 19.6861C74.4757 19.5469 74.2441 19.4418 73.9316 19.3707L72.8237 19.1278C72.2129 18.9886 71.7612 18.767 71.4686 18.4631C71.1788 18.1591 71.0339 17.7741 71.0339 17.3082C71.0339 16.9219 71.1419 16.5838 71.3578 16.294C71.5737 16.0043 71.872 15.7784 72.2527 15.6165C72.6333 15.4517 73.0694 15.3693 73.5609 15.3693C74.2683 15.3693 74.8251 15.5227 75.2314 15.8295C75.6376 16.1335 75.9061 16.5412 76.0368 17.0526Z" fill="#64748B"/>
<defs>
<clipPath id="clip0_7_1809">
<rect width="16.6667" height="16.6667" fill="white" transform="translate(1.66663 9.66667)"/>
</clipPath>
</defs>
</svg>
